HIERARCHY
ROOT Hips
{
  OFFSET -102.467 93.6631 130.069
  CHANNELS 6 Xposition Yposition Zposition Zrotation Xrotation Yrotation
  JOINT LeftUpLeg
  {
    OFFSET 8.64259 1.95398 -2.38835
    CHANNELS 3 Zrotation Xrotation Yrotation
    JOINT LeftLeg
    {
      OFFSET 43.7702 0 0
      CHANNELS 3 Zrotation Xrotation Yrotation
      JOINT LeftFoot
      {
        OFFSET 40.6238 0 0
        CHANNELS 3 Zrotation Xrotation Yrotation
        JOINT LeftToeBase
        {
          OFFSET 12.7242 0 0
          CHANNELS 3 Zrotation Xrotation Yrotation
          End Site
          {
            OFFSET 0 0 0
          }
        }
      }
    }
  }
  JOINT RightUpLeg
  {
    OFFSET -8.2249 1.95398 -2.59336
    CHANNELS 3 Zrotation Xrotation Yrotation
    JOINT RightLeg
    {
      OFFSET 43.5653 0 0
      CHANNELS 3 Zrotation Xrotation Yrotation
      JOINT RightFoot
      {
        OFFSET 40.6238 0 0
        CHANNELS 3 Zrotation Xrotation Yrotation
        JOINT RightToeBase
        {
          OFFSET 12.7242 0 0
          CHANNELS 3 Zrotation Xrotation Yrotation
          End Site
          {
            OFFSET 0 0 0
          }
        }
      }
    }
  }
  JOINT Spine
  {
    OFFSET 0.165834 0.87714 6.61349
    CHANNELS 3 Zrotation Xrotation Yrotation
    JOINT Spine1
    {
      OFFSET 7.38963 1.71661e-005 0
      CHANNELS 3 Zrotation Xrotation Yrotation
      JOINT Spine2
      {
        OFFSET 11.9445 1.14441e-005 0
        CHANNELS 3 Zrotation Xrotation Yrotation
        JOINT Spine3
        {
          OFFSET 14.7254 4.19617e-005 0
          CHANNELS 3 Zrotation Xrotation Yrotation
          JOINT Spine4
          {
            OFFSET 10.9679 0 0
            CHANNELS 3 Zrotation Xrotation Yrotation
            JOINT RightShoulder
            {
              OFFSET 2.46616 -1.6653 3.69651
              CHANNELS 3 Zrotation Xrotation Yrotation
              JOINT RightArm
              {
                OFFSET 13.0012 0 0
                CHANNELS 3 Zrotation Xrotation Yrotation
                JOINT RightForeArm
                {
                  OFFSET 28.7848 1.52588e-005 0
                  CHANNELS 3 Zrotation Xrotation Yrotation
                  JOINT RightHand
                  {
                    OFFSET 26.5688 1.52588e-005 0
                    CHANNELS 3 Zrotation Xrotation Yrotation
                    End Site
                    {
                      OFFSET 0 0 0
                    }
                  }
                }
              }
            }
            JOINT LeftShoulder
            {
              OFFSET 2.38034 -1.29275 -3.7523
              CHANNELS 3 Zrotation Xrotation Yrotation
              JOINT LeftArm
              {
                OFFSET 16.3182 6.10351e-005 0
                CHANNELS 3 Zrotation Xrotation Yrotation
                JOINT LeftForeArm
                {
                  OFFSET 27.0901 0 0
                  CHANNELS 3 Zrotation Xrotation Yrotation
                  JOINT LeftHand
                  {
                    OFFSET 24.5451 1.52588e-005 0
                    CHANNELS 3 Zrotation Xrotation Yrotation
                    End Site
                    {
                      OFFSET 0 0 0
                    }
                  }
                }
              }
            }
            JOINT Neck
            {
              OFFSET 5.0226 -0.0266342 0
              CHANNELS 3 Zrotation Xrotation Yrotation
              JOINT Head
              {
                OFFSET 6.69363 2.86102e-005 0
                CHANNELS 3 Zrotation Xrotation Yrotation
                End Site
                {
                  OFFSET 0 0 0
                }
              }
            }
          }
        }
      }
    }
  }
}
MOTION
Frames:	15
Frame Time:	0.0416667
-132.322 85.5473 -34.3273 107.754 70.237 82.004 177.433 25.4905 102.275 -65.723 25.4019 7.88058 66.7084 17.306 25.1196 68.4851 2.50205 16.9646 176.026 35.7346 79.3046 -81.6591 -13.8443 -2.69466 52.908 4.11255 1.75123 45.7459 -5.91627 -5.34374 -0.833375 9.74849 -89.0986 7.38459 -1.27419 1.84261 -4.2871 -1.19186 1.89688 -26.821 -1.76902 1.37455 -6.80837 -1.76902 1.37455 100.418 -50.1725 -84.8863 17.4578 7.04202 -18.3824 9.6349 7.86155 -61.646 -7.86005 0.255072 -9.63167 -94.7752 -49.2295 71.1453 -22.0908 25.3121 -47.0737 4.02199 6.22884 -41.9631 1.73581 -0.295304 -10.058 -3.54462 -24.2949 -11.2471 -14.6741 -20.1409 -32.1072 
-121.625 85.8306 -23.5963 106.438 54.7177 78.6524 -170.872 22.1322 110.204 -54.8727 23.6135 4.86045 62.5524 6.2875 10.4033 70.9081 0.844517 13.1194 -177.781 31.6616 67.4105 -80.6192 -4.30581 -6.33823 53.8546 2.24241 1.24564 49.0835 -7.22424 -6.06796 -0.778886 8.8575 -88.6561 9.1627 -0.951952 2.72971 -2.51084 -0.830925 2.76892 -25.0311 -1.7281 2.31777 -5.01847 -1.72814 2.31776 99.9528 -50.6157 -85.5948 28.9185 -15.1479 -5.61222 -15.7579 4.96476 -78.5336 -7.48468 0.0242663 -5.95313 -93.2409 -53.7833 74.6052 -10.2112 34.2237 -57.9667 15.9183 0.965669 -68.1596 0.987084 -0.202907 -8.20099 0.711221 -24.4704 -5.07312 -19.3087 -19.1893 -34.2198 
-108.391 88.6885 -13.1639 99.4963 37.1976 83.8196 -167.623 4.89258 114.751 -29.1994 12.8115 8.93441 48.7077 -7.14744 -5.98475 62.3554 2.97722 18.1313 175.788 33.2801 66.7275 -68.6302 3.31238 -4.62079 53.2069 3.32501 3.13338 47.9859 -6.85143 -5.9288 -1.09007 7.76548 -89.6164 11.3743 -1.9902 0.961757 -0.295206 -1.94594 1.04843 -22.8443 -2.18714 0.318924 -2.83165 -2.18717 0.318906 94.984 -50.2445 -93.3249 35.4873 -27.3401 10.1533 -21.9163 0.0549553 -62.1145 -4.16266 0.0615718 -7.99712 -88.1141 -55.3069 82.2131 -4.38843 26.0416 -50.7827 22.8465 -7.26759 -84.9495 0.548256 -0.168791 -7.43865 7.49126 -18.8794 6.75292 -21.3609 -15.7104 -29.7008 
-94.9526 89.737 -1.2483 95.9738 15.4732 78.2958 -168.931 -1.67167 107.385 -40.0296 13.8731 7.676 44.9693 -8.29639 0.214641 55.2632 -0.221134 9.92698 171.037 33.3143 71.4389 -63.4298 -4.24693 -1.19631 51.976 7.27609 9.54108 58.8559 -8.34213 -2.1241 -0.490689 7.98465 -90.6308 10.8866 -1.26794 -1.12817 -0.784289 -1.31637 -1.07128 -23.3174 -0.87032 -1.45704 -3.30476 -0.870345 -1.45706 93.6859 -49.9342 -95.3832 26.1211 -19.7717 5.05066 -8.03399 0.340751 -49.3458 -10.0476 0.0443064 -6.00875 -85.3678 -58.0419 86.4529 -4.30417 6.17759 -26.8575 18.571 -3.93067 -71.9076 3.11454 -0.200155 -6.66593 21.363 -11.4221 13.8635 -24.631 -11.9605 -19.7171 
-83.9975 88.8838 11.4594 91.1997 -7.79089 87.5771 -162.71 12.6107 97.7752 -74.2338 10.7101 0.323576 49.2035 -0.772492 10.2806 58.4752 1.138 14.0339 170.966 32.8382 79.4014 -66.4304 -10.6899 0.331096 61.4183 1.57747 3.26763 71.7702 -6.57092 7.84727 0.419358 9.01061 -90.7767 8.85339 0.491148 -1.57176 -2.81847 0.42153 -1.59185 -25.3481 0.940817 -1.35153 -5.33544 0.940797 -1.35153 94.2918 -50.5561 -94.3456 17.5286 -18.6281 -16.7382 -6.95277 -1.29923 -44.3573 -12.016 0.0042574 -5.39799 -85.4912 -58.1749 86.2945 -0.177013 4.42599 -5.9072 9.91541 10.6116 -36.5949 9.83733 -0.351921 -6.76548 31.8862 -4.29483 14.2695 -24.5647 -7.96041 -12.053 
-71.0141 88.943 25.28 82.8713 -24.4232 84.2576 -161.71 39.5392 86.3935 -95.3633 10.8201 1.37503 51.6366 2.44864 13.8583 60.3845 -1.59015 6.24687 170.766 23.5929 88.7302 -59.1086 -15.1081 3.03904 69.2088 0.253445 7.47771 58.2766 0.0933795 16.8481 1.46381 9.28912 -90.9971 8.31522 2.48237 -2.12031 -3.35525 2.38666 -2.2275 -25.9034 3.00474 -1.27597 -5.8907 3.00473 -1.27597 93.891 -48.1026 -95.3596 12.6804 -21.1752 -31.0696 -11.1244 0.724676 -55.7011 -7.93062 -0.0215517 -5.18304 -85.4084 -58.4993 86.4464 -7.95761 10.79 9.35022 1.60562 28.0119 -14.2577 12.3439 0.0836732 -3.02094 34.3899 -2.03785 10.4537 -25.1515 -5.45021 -6.19794 
-56.3748 90.8462 42.0182 75.3984 -32.5335 78.5147 -161.018 58.0855 74.7534 -86.8608 13.0667 0.13558 54.086 1.76957 10.8469 55.0474 -2.59883 1.70865 173.043 3.37101 88.9338 -31.266 -13.6056 1.91604 62.6928 9.65606 25.5524 29.3082 2.70229 17.2416 1.98745 9.17733 -89.9134 8.51371 4.00407 -0.0750784 -3.1511 3.99689 -0.251538 -25.7326 3.84118 1.13361 -5.71994 3.84117 1.1336 97.1374 -45.7594 -90.4472 13.2192 -20.529 -32.0945 -11.5252 5.55991 -71.6925 -8.3831 0.109685 -7.11882 -87.9674 -52.8832 82.0291 -21.4815 7.94168 25.0886 0.586028 26.8363 -11.9994 13.0391 0.159969 -2.5544 33.5532 -6.20699 0.815966 -24.984 -5.73105 -2.77724 
-41.5997 92.4224 58.3073 74.2174 -33.966 82.4963 -162.808 57.1096 75.4104 -60.3871 17.3471 -4.80588 53.1339 -1.66553 6.26584 47.4847 -2.61117 -1.5207 175.624 -9.58995 96.006 -22.3311 -16.1326 0.672867 28.7351 19.2964 35.4243 21.1092 2.66029 8.8944 1.73584 9.56042 -89.9885 7.76587 3.47082 -0.177071 -3.90057 3.45965 -0.329844 -26.4713 3.36346 0.875415 -6.45863 3.36348 0.875421 98.1726 -47.4873 -88.5917 13.6503 -14.9431 -24.3025 -13.6035 4.3601 -73.4102 -9.70133 0.103251 -6.73994 -90.5917 -53.6608 78.3743 -23.9261 8.0951 20.3228 -1.879 25.7942 -8.1063 11.9973 -0.142432 -4.75691 37.5202 -6.6915 -3.29518 -26.764 -4.68343 -0.431403 
-25.8897 91.8788 74.0926 78.8751 -33.4579 86.4566 -164.978 39.1091 75.7638 -45.7949 18.3573 -8.94392 52.9923 -0.789192 12.5501 34.5125 -1.40621 -6.21392 172.212 6.12187 89.2521 -81.2439 -22.411 -1.22719 41.3897 14.0695 16.2801 9.46384 4.52151 3.11458 0.925991 10.3503 -90.1216 6.17433 1.79824 -0.294046 -5.49545 1.78357 -0.372939 -28.0402 1.80344 0.260161 -8.02755 1.80345 0.260162 97.446 -50.4749 -89.4846 13.8881 -9.78139 -14.3252 -11.4477 -1.50317 -53.9771 -10.3394 0.0929566 -6.50908 -89.9526 -57.1513 79.9614 -14.3195 10.1291 4.67988 0.896425 16.5745 -16.1095 14.006 -0.250054 -5.50469 40.1943 -4.5373 -5.13971 -26.1646 -2.31306 3.13735 
-9.50126 88.339 90.357 77.8256 -33.69 85.8264 -173.488 22.8881 77.2967 -46.1413 23.2258 -4.03006 63.3291 15.8318 31.2585 53.6792 -2.82469 0.486571 173.932 38.8812 89.516 -118.856 -15.9297 -3.58101 41.536 8.49602 1.00932 27.3131 -0.640688 -6.52883 0.605857 10.0782 -90.0257 6.71795 1.1992 -0.0976493 -4.95246 1.19376 -0.150342 -27.4919 1.17311 0.267336 -7.47928 1.17311 0.26733 97.7272 -53.0551 -88.8374 16.9024 -4.23593 5.10469 -9.77716 -8.4761 -35.5459 -10.0539 -0.231298 -2.62069 -86.1303 -57.7386 85.3569 -2.39318 4.1375 -17.5251 2.55967 3.6444 -29.2841 19.9887 -0.564217 -6.76615 36.982 -3.99696 -6.89451 -24.3429 -1.23188 3.83687 
7.22954 88.3634 107.36 76.2071 -23.0923 85.504 -177.873 6.42013 83.8154 -38.2522 29.5254 1.84142 64.0446 12.1963 21.007 57.7856 -2.62808 2.52632 175.367 64.3545 84.108 -111.179 -18.983 -3.39168 48.2171 7.9822 6.72482 46.7077 -4.81971 -1.74686 -0.467826 9.56613 -90.2702 7.74955 -1.05168 -0.473213 -3.92089 -1.07146 -0.426471 -26.4593 -0.860836 -0.767427 -6.44664 -0.860826 -0.767415 98.9443 -51.7886 -87.0934 25.0654 0.618465 29.5509 -8.95393 -8.39946 -31.7413 -7.44876 -0.115038 -3.64182 -86.1042 -52.7592 84.7341 -4.85019 -6.52662 -38.122 10.2243 -0.0456458 -59.599 19.0266 -0.879185 -8.52491 28.9422 -4.25758 -7.98753 -20.8591 -1.17648 1.71252 
27.7898 91.014 125.38 75.5782 -23.7543 90.5701 -177.275 -7.93392 93.7126 -34.172 25.9193 8.05941 44.9697 -8.00769 -0.441661 55.9964 -3.25648 0.063477 172.46 61.629 89.9193 -64.9638 -20.9496 0.853156 52.9073 7.76342 8.37021 55.8724 -4.07091 6.78607 -1.16384 9.30516 -90.7262 8.24315 -2.64207 -1.28247 -3.42566 -2.69594 -1.1649 -25.9703 -2.13451 -2.01735 -5.95761 -2.13452 -2.01734 95.703 -50.2865 -92.1967 33.7641 -2.71569 41.3408 -3.45745 -0.435891 -31.5506 -5.34561 0.0274284 -6.46084 -82.9145 -49.554 89.1289 -3.99287 -6.96304 -42.0118 12.7291 -6.30768 -86.3454 17.1769 -0.600214 -7.33604 22.3085 -1.08026 -11.9493 -23.0802 1.91979 6.27081 
48.7421 90.0648 142.648 80.2671 -26.3381 91.2187 178.523 -9.85446 91.2203 -71.3035 21.0319 6.58107 46.2717 -5.65588 2.94296 54.4412 -2.32254 2.42964 171.739 47.2287 87.1912 -31.3335 -12.4146 5.53745 45.3597 13.2231 17.0665 65.2026 -5.40303 7.61391 -1.36258 9.68573 -90.5939 7.48708 -2.97786 -1.02299 -4.18076 -3.02 -0.890853 -26.7339 -2.53275 -1.87108 -6.72123 -2.53274 -1.87109 95.691 -53.0068 -91.8968 34.7443 -2.82361 38.6038 1.77327 7.89449 -35.0585 -1.1111 -0.0156333 -7.95719 -83.7979 -50.1094 87.8412 -4.50121 3.24069 -32.0916 11.0911 -6.32249 -81.8115 14.2435 -0.449514 -6.80123 21.3805 0.491899 -10.8654 -24.2443 2.51594 8.68286 
68.3675 87.2103 158.393 82.517 -33.7167 96.4867 -178.974 9.63078 92.6944 -114.399 12.0037 2.68888 45.6302 -1.74816 11.3681 50.6887 -2.28904 1.16369 163.904 43.0139 96.0987 -53.8974 -18.6307 8.41445 59.7686 5.27823 10.1004 36.0161 -0.217675 6.61011 -0.661295 9.98171 -91.2485 6.8848 -1.85512 -2.3832 -4.78685 -1.95819 -2.29929 -27.3087 -1.05345 -2.83026 -7.29609 -1.05344 -2.83025 98.0756 -57.0377 -88.0315 25.5313 -5.05337 19.056 7.23544 13.0322 -43.1301 -3.38539 0.0648106 -8.9137 -85.4703 -57.3461 86.2257 -11.85 3.65521 -18.6186 12.7276 6.53339 -46.2185 11.9153 -0.692964 -9.17373 31.93 1.69075 -10.7635 -28.3568 3.38951 12.9083 
88.6893 86.1583 174.186 81.4678 -40.1722 98.7727 169.948 41.3969 99.2323 -124.736 12.8158 1.79904 46.7341 -0.997961 12.8719 51.9623 -2.76855 -0.0637066 169.728 28.3658 97.7606 -58.7563 -20.835 6.25465 67.752 -0.625429 4.38151 61.3067 -4.26365 8.51903 0.128543 9.77721 -91.5647 7.31649 -0.418404 -3.08344 -4.35798 -0.553635 -3.06208 -26.865 0.527279 -3.06673 -6.85238 0.527293 -3.06672 98.1956 -53.9949 -88.0635 20.7357 -4.55407 -2.99423 5.29824 8.75336 -59.1309 -5.27872 0.0620144 -7.21148 -87.0135 -60.2574 84.4824 -13.8921 6.36721 -1.96957 3.89635 15.3312 -19.6257 11.5935 -0.334462 -6.32109 37.3233 2.22146 -12.4346 -32.5138 4.17953 15.0488 
